:SAMPLES-PER-SECOND 30
:FULLY-SPECIFIED
:DEGREES
217
root  10.78842193 36.53510987 -2.862844505 -4.854003906 -55.15309906 6.067993164
lowerback  15.92399979 -2.312860012 3.64880991
upperback  6.05411005 -3.228889942 -9.203310013
thorax  -3.16125989 -1.675670028 -11.52219963
lowerneck  1.675930023 4.374800205 1.711320043
upperneck  8.933650017 4.97672987 9.600640297
head  2.35281992 2.683209896 2.887820005
lclavicle  0 -9.442270133e-015 7.951389973e-016
lhumerus  20.86249924 -20.79840088 67.16750336
lradius  2.179461574e-031 -2.778271276e-031 128.1130066
lwrist  -1.412450015e-030 -0 11.87549973
lhand  -1.496451383e-031 -27.76390076 20.11240005
lfingers  90 7.125020027 -90
lthumb  89.89689403 5.08795885 91.16245106
rclavicle  0 -9.442270133e-015 7.951389973e-016
rhumerus  28.68969917 9.590760231 -83.45570374
rradius  -2.168047727e-031 2.787187308e-031 127.8779984
rwrist  3.531125038e-031 -0 -1.780990005
rhand  -7.920061211e-032 -33.2840004 9.303460121
rfingers  -90 -7.125020027 -90
rthumb  -92.93752616 -24.25625642 -97.11982154
rfemur  -39.76950073 19.88809967 -7.675149918
rtibia  -0 0 60.70149994
rfoot  -4.624936432e-032 -17.37490082 -5.7332201
rtoes  5.373923086 19.29304026 -105.8922705
lfemur  -13.0618 0.6071590185 -6.931489944
ltibia  -0 0 55.27460098
lfoot  -0 -28.65390015 -7.083610058
ltoes  -4.250644065 -19.5611806 -102.515957
218
root  10.8809336 36.3764455 -2.872488818 -4.984985352 -54.22259903 5.958984375
lowerback  15.76840019 -2.597259998 3.685050011
upperback  6.102640152 -3.597349882 -9.262209892
thorax  -3.11552 -1.856930017 -11.53680038
lowerneck  2.295020103 4.350049973 1.359410048
upperneck  8.464650154 5.005559921 9.777709961
head  2.071729898 2.660200119 2.973520041
lclavicle  0 -9.442270133e-015 7.951389973e-016
lhumerus  20.87010002 -20.80780029 67.19450378
lradius  2.175434241e-031 -2.781425876e-031 128.0299988
lwrist  -7.062250077e-031 -1.765562519e-031 11.96710014
lhand  -1.496451383e-031 -27.76390076 20.11240005
lfingers  90 7.125020027 -90
lthumb  89.89689403 5.08795885 91.16245106
rclavicle  0 -9.442270133e-015 7.951389973e-016
rhumerus  28.78199959 9.665690422 -83.62950134
rradius  -2.169750097e-031 2.785862264e-031 127.913002
rwrist  1.412450015e-030 -3.531125038e-031 -1.100209951
rhand  -7.920061211e-032 -33.2840004 9.303460121
rfingers  -90 -7.125020027 -90
rthumb  -92.93752616 -24.25625642 -97.11982154
rfemur  -39.77980042 18.36750031 -7.539340019
rtibia  -0 0 61.43470001
rfoot  -4.59969426e-032 -16.34009933 -6.046639919
rtoes  5.373923086 19.29304026 -105.8922705
lfemur  -12.88010025 1.054239988 -7.124070168
ltibia  -0 0 54.67380142
lfoot  1.025399659e-031 -30.58060074 -6.768919945
ltoes  -4.250644065 -19.5611806 -102.515957
219
root  10.98831132 36.27333453 -2.912400088 -5.348999023 -53.39970016 6.12701416
lowerback  15.80819988 -2.844579935 3.574569941
upperback  6.225699902 -3.947710037 -9.408889771
thorax  -3.088000059 -2.031009912 -11.56529999
lowerneck  2.795799971 4.356699944 0.9631279707
upperneck  7.942989826 5.064340115 10.10750008
head  1.790920019 2.654289961 3.123320103
lclavicle  0 -9.442270133e-015 7.951389973e-016
lhumerus  21.08230019 -20.81690025 67.05840302
lradius  2.171499858e-031 -2.784498591e-031 127.9489975
lwrist  -1.412450015e-030 -0 12.07989979
lhand  -1.496451383e-031 -27.76390076 20.11240005
lfingers  90 7.125020027 -90
lthumb  89.89689403 5.08795885 91.16245106
rclavicle  0 -9.442270133e-015 7.951389973e-016
rhumerus  28.85560036 9.709119797 -83.91770172
rradius  -2.176842106e-031 2.780324169e-031 128.0590057
rwrist  3.531125038e-031 -3.531125038e-031 -0.4770010114
rhand  -7.920061211e-032 -33.2840004 9.303460121
rfingers  -90 -7.125020027 -90
rthumb  -92.93752616 -24.25625642 -97.11982154
rfemur  -39.55220032 17.04360008 -7.68091011
rtibia  -0 0 61.91090012
rfoot  -4.591228576e-032 -15.97579956 -5.447020054
rtoes  5.373923086 19.29304026 -105.8922705
lfemur  -13.15359974 1.666579962 -7.609129906
ltibia  -0 0 54.95489883
lfoot  5.196322738e-032 -31.85040092 -5.983920097
ltoes  -4.250644065 -19.5611806 -102.515957
220
root  11.09666674 36.21444402 -2.968755482 -5.409973145 -53.24459839 6.127990723
lowerback  15.80519962 -2.892760038 3.442110062
upperback  6.340250015 -4.033939838 -9.485210419
thorax  -2.980190039 -2.069590092 -11.55620003
lowerneck  3.112200022 4.390870094 0.5119469762
upperneck  7.501860142 5.148890018 10.37320042
head  1.568570018 2.666450024 3.271640062
lclavicle  0 -9.442270133e-015 7.951389973e-016
lhumerus  21.38199997 -20.7010994 66.79679871
lradius  2.170430744e-031 -2.785332013e-031 127.927002
lwrist  0 1.765562519e-031 12.03750038
lhand  -1.496451383e-031 -27.76390076 20.11240005
lfingers  90 7.125020027 -90
lthumb  89.89689403 5.08795885 91.16245106
rclavicle  0 -9.442270133e-015 7.951389973e-016
rhumerus  28.97430038 10.0177002 -84.28209686
rradius  -2.183774031e-031 2.774882884e-031 128.2019958
rwrist  1.412450015e-030 -3.531125038e-031 0.1950919926
rhand  -7.920061211e-032 -33.2840004 9.303460121
rfingers  -90 -7.125020027 -90
rthumb  -92.93752616 -24.25625642 -97.11982154
rfemur  -39.7242012 16.36050034 -7.777540207
rtibia  -0 0 62.00730133
rfoot  -9.17476774e-032 -15.80720043 -4.843389988
rtoes  5.373923086 19.29304026 -105.8922705
lfemur  -13.67230034 2.900880098 -8.004730225
ltibia  -0 0 55.61750031
lfoot  5.243824503e-032 -32.67630005 -3.486530066
ltoes  -4.250644065 -19.5611806 -102.515957
221
root  11.20259968 36.20311106 -3.010600007 -5.611999512 -53.96870041 6.366027832
lowerback  15.77620029 -2.636149883 3.052710056
upperback  6.421209812 -3.75296998 -9.484490395
thorax  -2.792840004 -1.924270034 -11.37880039
lowerneck  3.298130035 4.445630074 -0.02574919909
upperneck  7.215300083 5.249949932 10.46049976
head  1.42027998 2.692140102 3.384599924
lclavicle  0 -9.442270133e-015 7.951389973e-016
lhumerus  21.62770081 -20.1868 66.63179779
lradius  2.170673668e-031 -2.785142701e-031 127.9319992
lwrist  -1.412450015e-030 -0 12.34679985
lhand  -1.496451383e-031 -27.76390076 20.11240005
lfingers  90 7.125020027 -90
lthumb  89.89689403 5.08795885 91.16245106
rclavicle  0 -9.442270133e-015 7.951389973e-016
rhumerus  29.08160019 10.68089962 -84.63150024
rradius  -2.185614389e-031 2.773433572e-031 128.2400055
rwrist  3.531125038e-031 -3.531125038e-031 1.132809997
rhand  -7.920061211e-032 -33.2840004 9.303460121
rfingers  -90 -7.125020027 -90
rthumb  -92.93752616 -24.25625642 -97.11982154
rfemur  -40.21469879 16.32819939 -7.985980034
rtibia  -0 0 61.73970032
rfoot  -4.58148509e-032 -15.54450035 -4.402619839
rtoes  5.373923086 19.29304026 -105.8922705
lfemur  -13.98009968 4.665160179 -8.606789589
ltibia  -0 0 56.4048996
lfoot  5.606128251e-032 -33.22299957 0.2933270037
ltoes  -4.250644065 -19.5611806 -102.515957
